<svg xmlns="http://www.w3.org/2000/svg" viewBox="0 0 400 240">
  <defs>
    <linearGradient id="sky" x1="0" y1="0" x2="0" y2="1">
      <stop offset="0" stop-color="hsl(224 45% 26%)"/><stop offset="1" stop-color="hsl(254 40% 14%)"/>
    </linearGradient>
  </defs>
  <rect width="400" height="240" fill="url(#sky)"/>
  <rect x="0" y="196" width="400" height="44" fill="hsl(224 20% 10%)"/>
  <g>
    <rect x="150" y="40" width="100" height="164" rx="10" fill="hsl(224 18% 16%)" stroke="hsl(224 40% 45%)" stroke-width="2"/>
    <rect x="160" y="52" width="56" height="110" rx="6" fill="hsl(224 55% 30%)"/>
    <rect x="166" y="58" width="18" height="28" rx="4" fill="hsl(284 75% 62%)"/><rect x="192" y="58" width="18" height="28" rx="4" fill="hsl(304 75% 62%)"/><rect x="166" y="94" width="18" height="28" rx="4" fill="hsl(324 75% 62%)"/><rect x="192" y="94" width="18" height="28" rx="4" fill="hsl(344 75% 62%)"/><rect x="166" y="130" width="18" height="28" rx="4" fill="hsl(4 75% 62%)"/><rect x="192" y="130" width="18" height="28" rx="4" fill="hsl(24 75% 62%)"/>
    <rect x="222" y="52" width="20" height="70" rx="4" fill="hsl(224 25% 22%)"/>
    <circle cx="232" cy="140" r="7" fill="#41d98d"/>
    <rect x="160" y="170" width="80" height="24" rx="5" fill="hsl(224 25% 12%)"/>
  </g>
  <text x="200" y="226" text-anchor="middle" font-family="Helvetica, Arial, sans-serif" font-size="14" font-weight="700" fill="#fff" opacity="0.92">Verdi Cinema Corner</text>
  <text x="200" y="30" text-anchor="middle" font-family="Helvetica, Arial, sans-serif" font-size="10" letter-spacing="3" fill="#fff" opacity="0.55">VILA DE GRÀCIA</text>
</svg>