<svg xmlns="http://www.w3.org/2000/svg" viewBox="0 0 800 520">
  <rect width="800" height="520" fill="#f0e9dc"/>
  <rect x="0" y="400" width="800" height="120" fill="#ddd2c3"/>
  <!-- little office skyline -->
  <g fill="#0a2240" opacity="0.9">
    <rect x="90" y="210" width="120" height="190"/>
    <rect x="240" y="150" width="90" height="250"/>
    <rect x="360" y="250" width="200" height="150"/>
    <rect x="590" y="180" width="110" height="220"/>
  </g>
  <g fill="#60b5e6">
    <rect x="255" y="165" width="60" height="8"/>
    <rect x="255" y="185" width="60" height="8"/>
    <rect x="605" y="195" width="80" height="8"/>
  </g>
  <circle cx="285" cy="120" r="26" fill="#0056b5"/>
  <path d="M285 106c6 8 10 14 10 19a10 10 0 1 1-20 0c0-5 4-11 10-19z" fill="#f0e9dc"/>
  <g font-family="'Plus Jakarta Sans', Helvetica, Arial, sans-serif" text-anchor="middle">
    <rect x="200" y="430" width="400" height="60" rx="14" fill="#f0e9dc"/>
    <text x="400" y="456" font-size="20" font-weight="800" fill="#0a2240">HELLO WORLD OFFICES</text>
    <text x="400" y="478" font-size="12" fill="#46608c">drop the team photo here — public/images_map/hello_world_offices.svg</text>
  </g>
</svg>
